<svg xmlns="http://www.w3.org/2000/svg" width="259" height="79" viewBox="0 0 259 79">
  <g id="Group_2989" data-name="Group 2989" transform="translate(-1774.956 -871.394)">
    <path id="Path_18911" data-name="Path 18911" d="M1839.663,885.629h-11.057c-3.317,0-5.133-1.819-5.133-5.14v-3.954c0-3.4,1.816-5.141,5.133-5.141h38.776c3.317,0,5.134,1.74,5.134,5.141v3.954c0,3.321-1.816,5.14-5.134,5.14h-11.056v37.485c0,3.321-1.817,5.14-5.133,5.14h-6.4c-3.317,0-5.133-1.819-5.133-5.14Z" transform="translate(-40.158)" fill="#fff"/>
    <path id="Path_18912" data-name="Path 18912" d="M1787.556,999.461a19.913,19.913,0,0,1,9.8-17.143V972.99a2.979,2.979,0,0,0-4.278-2.692,32.527,32.527,0,0,0,10.635,61.469l1.2-12.566a19.922,19.922,0,0,1-17.349-19.741" transform="translate(0 -81.586)" fill="#fff"/>
    <path id="Path_18913" data-name="Path 18913" d="M2048.242,1000.908a32.554,32.554,0,0,0-17.5-28.847,2.792,2.792,0,0,0-4.087,2.473v9.738a19.863,19.863,0,0,1,5.018,28.533l10.183,7.443a32.373,32.373,0,0,0,6.385-19.34" transform="translate(-208.337 -83.033)" fill="#fff"/>
    <path id="Path_18914" data-name="Path 18914" d="M1948.567,1267.883l-1.464-12.539c-.188.015-.377.027-.566.036a20.029,20.029,0,0,1-3.489-.139l-1.2,12.566q1.206.138,2.436.188a32.825,32.825,0,0,0,4.278-.112" transform="translate(-138.142 -317.626)" fill="#d70f52"/>
    <path id="Path_18915" data-name="Path 18915" d="M1976.963,1252.306l1.195,12.56a32.207,32.207,0,0,0,6.039-1.246l-4.06-11.957a19.5,19.5,0,0,1-3.174.643" transform="translate(-167.205 -314.665)" fill="#f28121"/>
    <path id="Path_18916" data-name="Path 18916" d="M1972.327,1255.466l1.464,12.539c.177-.016.353-.036.529-.055l-1.194-12.561q-.4.047-.8.077" transform="translate(-163.367 -317.748)" fill="#c46302"/>
    <path id="Path_18917" data-name="Path 18917" d="M1999.841,1244.172l3.8,12.035a32.324,32.324,0,0,0,5.637-2.464L2002.8,1242.9a19.746,19.746,0,0,1-2.962,1.271" transform="translate(-186.141 -307.414)" fill="#2da34a"/>
    <path id="Path_18918" data-name="Path 18918" d="M1995.386,1250.509l4.059,11.957q.255-.079.509-.163l-3.8-12.034q-.38.128-.767.241" transform="translate(-182.453 -313.511)" fill="#21893d"/>
    <path id="Path_18919" data-name="Path 18919" d="M2021.12,1231.822l6.238,10.971a32.654,32.654,0,0,0,5.008-3.563l-8.607-9.245a20.059,20.059,0,0,1-2.639,1.837" transform="translate(-203.753 -296.727)" fill="#fdc500"/>
    <path id="Path_18920" data-name="Path 18920" d="M2017.032,1241.022l6.476,10.842c.156-.087.313-.173.467-.262l-6.239-10.971q-.348.2-.7.392" transform="translate(-200.37 -305.536)" fill="#cc9c05"/>
    <path id="Path_18921" data-name="Path 18921" d="M2040,1212.738l8.4,9.415a32.767,32.767,0,0,0,4.506-4.935l-10.183-7.443a20.152,20.152,0,0,1-2.72,2.962" transform="translate(-219.377 -280.004)" fill="#0066a5"/>
    <path id="Path_18922" data-name="Path 18922" d="M2036.438,1227.47l8.607,9.244q.2-.175.4-.354l-8.4-9.415q-.3.268-.613.525" transform="translate(-216.433 -294.211)" fill="#00548a"/>
    <path id="Path_18923" data-name="Path 18923" d="M2196.646,1049.059h.531v-.9c0-1.329-1.541-1.7-2.975-1.7a12.561,12.561,0,0,0-4.408,1.011c-2.124.9-3.664.478-4.673-1.6l-.744-1.6c-.9-1.968-.531-3.723,1.434-4.627a22.852,22.852,0,0,1,9.454-2.074c7.913,0,12.958,4.414,12.958,11.487v13.3c0,2.233-1.168,3.457-3.451,3.457h-3.134c-2.177,0-3.292-1.276-3.451-3.67h-.107a8.582,8.582,0,0,1-7.754,4.308c-5.524,0-8.869-3.936-8.869-8.509,0-6.488,7.86-8.881,15.189-8.881m-2.975,9.732a3.551,3.551,0,0,0,3.612-3.616v-.532h-.584c-3.027,0-5.2.851-5.2,2.34,0,.8.584,1.808,2.177,1.808" transform="translate(-336.467 -137.508)" fill="#fff"/>
    <path id="Path_18924" data-name="Path 18924" d="M2390.324,1049.536c0-1.329-.691-1.915-1.647-1.915-3.133,0-3.24,3.829-3.24,7.021v7.711c0,2.233-1.168,3.457-3.452,3.457h-4.143c-2.283,0-3.451-1.223-3.451-3.457v-12.817c0-1.329-.691-1.915-1.647-1.915-3.133,0-3.24,3.829-3.24,7.021v7.711c0,2.233-1.221,3.457-3.506,3.457h-4.142a3.112,3.112,0,0,1-3.452-3.457v-20.688c0-2.286,1.221-3.457,3.452-3.457h3.664c1.912,0,3.4,1.223,3.4,3.882h.106c1.275-2.074,3.24-4.52,7.595-4.52,2.921,0,6.054,1.223,7.435,4.467h.106c1.168-2.394,4.462-4.467,8.391-4.467,4.515,0,8.869,2.34,8.869,10.211v14.572c0,2.233-1.168,3.457-3.452,3.457h-4.142c-2.284,0-3.5-1.223-3.5-3.457Z" transform="translate(-482.929 -137.507)" fill="#fff"/>
    <path id="Path_18925" data-name="Path 18925" d="M2636.245,1049.059h.531v-.9c0-1.329-1.54-1.7-2.974-1.7a12.553,12.553,0,0,0-4.408,1.011c-2.124.9-3.665.478-4.674-1.6l-.744-1.6c-.9-1.968-.531-3.723,1.434-4.627a22.847,22.847,0,0,1,9.454-2.074c7.913,0,12.958,4.414,12.958,11.487v13.3c0,2.233-1.168,3.457-3.452,3.457h-3.134c-2.177,0-3.293-1.276-3.452-3.67h-.106a8.581,8.581,0,0,1-7.753,4.308c-5.524,0-8.87-3.936-8.87-8.509,0-6.488,7.86-8.881,15.189-8.881m-2.974,9.732a3.552,3.552,0,0,0,3.612-3.616v-.532h-.584c-3.028,0-5.206.851-5.206,2.34,0,.8.584,1.808,2.178,1.808" transform="translate(-700.33 -137.508)" fill="#fff"/>
    <path id="Path_18926" data-name="Path 18926" d="M2793.038,1059.321l.9-1.436c1.168-1.808,2.549-1.968,4.78-1.117a12.028,12.028,0,0,0,4.514,1.17c1.169,0,1.594-.479,1.594-1.064,0-2.34-12.322-.319-12.322-10,0-6.169,5.364-9.307,11.95-9.307a20.506,20.506,0,0,1,8.126,1.6c1.912.957,2.23,2.766,1.274,4.68l-.743,1.489c-.478,1.011-1.275,2.713-4.515,1.649a14.821,14.821,0,0,0-4.354-.957c-1.063,0-1.487.372-1.487,1.01,0,2.234,12.321.213,12.321,9.733,0,5.531-4.408,9.679-11.79,9.679a19.492,19.492,0,0,1-9.347-2.287c-1.965-1.223-2.124-2.925-.9-4.84" transform="translate(-842.039 -137.507)" fill="#fff"/>
    <path id="Path_18927" data-name="Path 18927" d="M2960.269,1002.217c0-1.968-.9-2.606-2.443-2.606-3.452,0-4.142,3.191-4.142,6.063v8.722a3.112,3.112,0,0,1-3.452,3.457h-4.143c-2.283,0-3.505-1.223-3.505-3.457V983.072c0-2.287,1.222-3.457,3.505-3.457h4.143c2.23,0,3.452,1.17,3.452,3.457V991a23.9,23.9,0,0,1-.107,2.393h.107a8.773,8.773,0,0,1,7.648-3.776c4.992,0,10.038,2.127,10.038,10.211V1014.4a3.112,3.112,0,0,1-3.452,3.457h-4.143c-2.284,0-3.5-1.223-3.5-3.457Z" transform="translate(-966.463 -89.551)" fill="#fff"/>
    <path id="Path_18928" data-name="Path 18928" d="M3138.112,1049.059h.531v-.9c0-1.329-1.54-1.7-2.974-1.7a12.551,12.551,0,0,0-4.407,1.011c-2.125.9-3.665.478-4.674-1.6l-.744-1.6c-.9-1.968-.531-3.723,1.435-4.627a22.845,22.845,0,0,1,9.453-2.074c7.913,0,12.959,4.414,12.959,11.487v13.3c0,2.233-1.168,3.457-3.452,3.457H3143.1c-2.177,0-3.292-1.276-3.452-3.67h-.106a8.583,8.583,0,0,1-7.754,4.308c-5.524,0-8.869-3.936-8.869-8.509,0-6.488,7.86-8.881,15.189-8.881m-2.974,9.732a3.552,3.552,0,0,0,3.612-3.616v-.532h-.584c-3.028,0-5.205.851-5.205,2.34,0,.8.584,1.808,2.177,1.808" transform="translate(-1115.734 -137.508)" fill="#fff"/>
  </g>
</svg>
